/* XPM */
static char *_2_bitcoin16[] = {
/* columns rows colors chars-per-pixel */
"16 16 2 1 ",
"  c #0645F7",
". c None",
/* pixels */
"........ .......",
"..... .... .....",
"... .        ...",
".. . .....  . ..",
"..  .      . ...",
". .  ...... .  .",
".. . ...... . ..",
".. . ...... . ..",
".. . ...... . ..",
".. . ...... . ..",
". .  ...... .  .",
"..  .      . ...",
"..   .....  . ..",
"... .        . .",
"....  .... .  ..",
"................"
};
