/* XPM */
static char * C:\Users\earlz\Creative Cloud Files\qtum logos\bitcoin64_xpm[] = {
"64 64 2 1",
" 	c None",
".	c #29A7E1",
"                                                                ",
"                                                                ",
"                                                                ",
"                                                                ",
"                    ...              ...                        ",
"                   .....            ....                        ",
"                   .....................                        ",
"                   ....             .....                       ",
"                 .. ....            ......                      ",
"                .. ..  .           ..  .  ..                    ",
"               ..  .    .         ..   ..  ..                   ",
"             ..   ..     .        .     .   ..                  ",
"            ..    .      ..      .      ..    ..                ",
"           .      .       .     ..       .     ..               ",
"      .....      .         .    .        ..      .....          ",
"     .....       .         ..  .          .       ....          ",
"     .....      .           ....          .       ....          ",
"      ......   ..          .....           ..   ......          ",
"      ..   ......   ....................  ......   ..           ",
"      ..     ........       ....      .........    ...          ",
"      ..     ....           .  .          ....     . .          ",
"     ....     ...          .   ..          ...     . .          ",
"     . ..    .. .          .    .         .. .     .  .         ",
"     .  .    .   .        .     ..        .   .    .  .         ",
"    ..  .   ..   .       ..      .       ..   ..   .  .         ",
"    .   .   .    ..      .        .      .     .   .   .        ",
"    .   .  .      .     ..        .     ..     ..  .   .        ",
"   ..   .  .      ..    .          .    .       .  .   .        ",
"   .    . .        .   .           ..  ..       .. .   ..       ",
"   .    . .        ..  .            .  .         . .    .       ",
" ...    ..          ...             ....         ...    ..      ",
"....   ....        ....             ....         ....  ....     ",
"............................................................    ",
"....   ....        ....             ....         ....  ....     ",
" ...    ..          ...             ....         ...    ...     ",
"   .    . .        .. ..            .  .         . .    .       ",
"   .    . .        .   .           ..  ..       .. .    .       ",
"   ..   .  .      ..    .          .    .       .  .   .        ",
"    .   .  .      .     ..        .     ..     ..  .   .        ",
"    .   .   .    ..      .        .      .     .   .   .        ",
"    ..  .   .    .       ..      .       ..   ..   .  .         ",
"     .  .    .   .        .     ..        .   .    .  .         ",
"     . ..    .. .          .    .         .. .     .  .         ",
"     ....     ...          .   ..          ...     . .          ",
"      ..     ....           .  .          ....     . .          ",
"      ..     .........      ....      .........    ...          ",
"      ..   ......   ...................   ......   ..           ",
"      ......   ..          .....           ..   .....           ",
"     .....      .           ....          .       ...           ",
"     .....       .         ..  .          .       ....          ",
"      .....      .         .    .        ..      ..  ..         ",
"          ..     ..       .     ..       .     ..     ..        ",
"            ..    .      ..      .      ..    ..        .       ",
"             ..   ..     .        .     .    ..          ...... ",
"               .   .    .         ..    .  ..             ......",
"                .. ..  .           ..  .  ..             .......",
"                 .. ....            . ....               .......",
"                   ....             .....                 ......",
"                   .....................                  ..... ",
"                   .....            ....                        ",
"                    ...              ...                        ",
"                                                                ",
"                                                                ",
"                                                                "};
