/* XPM */
static char * C:\Users\earlz\Creative Cloud Files\qtum logos\bitcoin16_xpm[] = {
"16 16 2 1",
" 	c None",
".	c #29A7E1",
"                ",
"     .   .      ",
"                ",
"          .     ",
" . .   .   .    ",
" . .       . .  ",
"                ",
". .  .   .  . . ",
". .  .   .  . . ",
"                ",
" . .       . .  ",
" . ..  .  ..    ",
"          .     ",
"              ..",
"     .   .     .",
"                "};
