/* XPM */
static char *_4_bitcoin32[] = {
/* columns rows colors chars-per-pixel */
"32 32 2 1 ",
"  c #0645F7",
". c None",
/* pixels */
"................. ..............",
".........  ..  .   ..  .........",
".........   .  .. ..   .........",
"......  ..   ......   ..  ......",
"......   ..    ..    ..   ......",
"......    ..   ..   ..   .......",
"...   .    ..........   ..  ....",
"...    .               ..   ....",
"....    .             ..   .....",
".   .    .           ..   ..  ..",
".    .    ............   ..   ..",
"..    .   ............  ..   ...",
"...   .   ............  .   ....",
". ..  .   ............  .   .  .",
"   .  .   ............  .   .  .",
".......   ............  ........",
". ..  .   ............  .. .....",
"   .  .   ............  .   .  .",
". ..  .   ............  .   .  .",
"...   .   ............  .    ...",
"..   ..   ............   .    ..",
".   ..   .............    .   ..",
".  ..   ..            .    .  ..",
"....   ..              .    ....",
"...   ..   ..........   .    ...",
"...  ..   ..   ..   ..   .    ..",
"......   ..    ..    ..   .    .",
"......  ..     ..     ..   .   .",
".........   ........   ..   .  .",
".........  ..  .. ...  ...   . .",
".............  ..  ........  .  ",
"................................"
};
