/* XPM */
static char *_4_bitcoin128[] = {
/* columns rows colors chars-per-pixel */
"128 128 2 1 ",
"  c #0645F7",
". c None",
/* pixels */
"................................................................................................................................",
"................................................................................................................................",
".....................................................      ........      .......................................................",
"....................................................        ......        ......................................................",
".....................................     ..........        ......         ...........    ......................................",
"....................................       ........          ....          ..........       ....................................",
"...................................         .......          ....          .........        ....................................",
"...................................          .......         .....         ........          ...................................",
"...................................           ......        ......        ........           ...................................",
"...................................            ......      ........      ........            ...................................",
"...................................             ......    ..........    ........            ....................................",
"....................................             ..............................             ....................................",
"........................     ........             ............................             ......     ..........................",
".......................       ........             ..........................             ......       .........................",
"......................         ........             ........................             ......         ........................",
"......................          ........                     .....                      ......          ........................",
"......................           ........                    .....                     ......           ........................",
"......................            ........                   .....                    ......            ........................",
"......................             ........                  .....                   ......             ........................",
".......................             ........                 .....                  ......             .........................",
"........................             ........                .....                 ......             ..........................",
".........................             ........               .....                ......             ...........................",
"...............    .......             ........              .....               ......             .......    .................",
".............        ......             ........             .....              ......             .......       ...............",
".............         ......             .........           .....            .......             .......        ...............",
"............           ......             ..........................................             .......          ..............",
"............            ......             ........................................             .......           ..............",
"............             ......             ......................................             .......            ..............",
".............             ......             ....................................             .......            ...............",
".............              ......                                                            .......             ...............",
"..............              ......                                                          .......             ................",
"...............              ......                                                        .......             .................",
"................              ......                                                      .......             ..................",
".................              ......                                                    .......             ...................",
"..................              ......                                                  .......             ....................",
".......     .......              ......                                                .......             ........     ........",
".....        .......              ......                                              .......             .......        .......",
".....         .......              ......                                            .......             .......         .......",
"....           .......              ......                                          .......             .......           ......",
"....            .......              .....................................................             .......            ......",
"....             .......              ...................................................             .......             ......",
".....             .......             ..................................................             .......             .......",
".....              .......             ................................................             .......              .......",
"......              .......            ................................................            .......              ........",
".......              .......           ................................................           .......              .........",
"........              .......          ................................................          .......              ..........",
".........              .......         ................................................         .......              ...........",
"..........              ......         ................................................         ......              ............",
"...........             ......         ................................................         ......             .............",
"............             .....         ................................................         .....             ..............",
".............            .....         ................................................         .....            ...............",
".....  .......           .....         ................................................         .....           .......  .......",
"...      ......          .....         ................................................         .....          ......      .....",
"..        .....          .....         ................................................         .....          .....        ....",
"..        .....          .....         ................................................         .....          .....        ....",
".          ....          .....         ................................................         .....          ....          ...",
".          ....          .....         ................................................         .....          ....          ...",
"..         ....          .....         ................................................         .....          .....         ...",
"..        .....          .....         ................................................         .....          .....        ....",
"...      ......          .....         ................................................         .....          ......      .....",
"....    .......          .....         ................................................         .....          .......    ......",
"..............................         ................................................         ................................",
"..............................         ................................................         ................................",
"..............................         ................................................         ................................",
"..............................         ................................................         ................................",
"..............................         ................................................         ................................",
"...      ......          .....         ................................................         .....          ......      .....",
"..        .....          .....         ................................................         .....          .....        ....",
"..        .....          .....         ................................................         .....          .....        ....",
".          ....          .....         ................................................         .....          ....          ...",
".          ....          .....         ................................................         .....          ....          ...",
"..         ....          .....         ................................................         .....          .....         ...",
"..        .....          .....         ................................................         .....          .....        ....",
"...      ......          .....         ................................................         .....          ......      .....",
"....    .......          .....         ................................................         .....          .......    ......",
"..............           .....         ................................................         .....           ................",
".............            .....         ................................................         .....            ...............",
"............             .....         ................................................         .....             ..............",
"...........             ......         ................................................         ......             .............",
"..........              ......         ................................................         ......              ............",
".........              ......          ................................................          ......              ...........",
"........              ......           ................................................           ......              ..........",
".......              ......            ................................................            ......              .........",
"......              ......             ................................................             ......              ........",
".....              ......              ................................................              ......              .......",
".....             ......              ..................................................              ......             .......",
"....             ......              .......                                      .......              ......             ......",
"....            ......              .....                                            .....              ......            ......",
"....           ......              .....                                              .....              ......           ......",
".....         ......              .....                                                .....              ......         .......",
".....        ......              .....                                                  .....              ......        .......",
"......      ......              .....                                                    .....              .......     ........",
".................              .....                                                      .....              ...................",
"................              .....                                                        .....              ..................",
"...............              .....                                                          .....              .................",
"..............              .....                                                            .....              ................",
"..............             .....             ....................................             .....              ...............",
".............             .....              .....................................             .....              ..............",
"............             .....              .......................................             .....              .............",
"............            .....              .........................................             .....              ............",
"............           .....              ...........................................             .....              ...........",
".............         .....              .......             .....             .......             .....              ..........",
".............        .....              .......              .....               ......             .....              .........",
"..............      .....              .......               .....                ......             .....              ........",
"........................              .......                .....                 ......             .....              .......",
".......................              .......                 .....                  ......             .....              ......",
"......................              .......                  .....                   ......             .....              .....",
"......................             .......                   .....                    ......             .....              ....",
"......................            .......                    .....                     ......             .....             ....",
"......................           .......                     .....                      ......             .....             ...",
"......................          .......              ......................              ......             .....            ...",
".......................        .......              ........................              ......             .....           ...",
"........................     ........              ..........................              ......             .....         ....",
"....................................              ............................              ......             .....        ....",
"...................................              ..............................             .......             .....      .....",
"...................................             ................................             .......             ...............",
"...................................            ......      ........      ........            ........             ......    ....",
"...................................           ......        ......        ........           .........             ....       ..",
"...................................          .......        ......        .........         ...........            ...         .",
"....................................        .......          .....         .........        ............           ...         .",
".....................................     .........          ....          ..........      ..............          ...         .",
"...................................................          .....         ...............................         ...         .",
"....................................................        ......        .................................       ....         .",
".....................................................      ........       ..................................     ......       ..",
"......................................................    ..........    ................................................     ...",
"................................................................................................................................",
"................................................................................................................................",
"................................................................................................................................"
};
