/* XPM */
static char *_4_bitcoin64[] = {
/* columns rows colors chars-per-pixel */
"64 64 2 1 ",
"  c #0645F7",
". c None",
/* pixels */
"................................................................",
"..........................    ...    ...........................",
"..................   .....    ...    ......  ...................",
"..................    ....    ...    .....    ..................",
".................      ...    ...    ....     ..................",
"..................      ................      ..................",
"............   ....      ..............      ...   .............",
"...........     ....      ...........       ...     ............",
"...........      ....          ..          ...      ............",
"...........       ....         ..         ...       ............",
"............       ....        ..        ...       .............",
".......   ...       ....       ..       ...       ...   ........",
"......     ...       .....................       ...     .......",
"......      ...       ...................       ...      .......",
"......       ...       .................       ...       .......",
".......       ...                             ...       ........",
"........       ...                           ...       .........",
".... ....       ...                         ...       .... .....",
"...    ...       ...                       ...       ...     ...",
"..      ...       ...........................       ...      ...",
"..       ...       .........................       ...       ...",
"...       ...       ........................      ...       ....",
"....       ...      .......................      ...       .....",
".....       ...     .......................     ...       ......",
"......      ...     .......................     ...      .......",
".......      ..     .......................     ...     ........",
".    ...     ..     .......................     ...    ...    ..",
".    ...     ..     .......................     ...    ...    ..",
".    ...     ..     .......................     ...    ...    ..",
".    ...     ..     .......................     ...    ...    ..",
"........    ...     .......................     ...    .........",
"...............     .......................     ................",
"...............     .......................     ................",
".    ...     ..     .......................     ...    ...    ..",
".    ...     ..     .......................     ...    ...    ..",
".    ...     ..     .......................     ...    ...    ..",
".    ...     ..     .......................     ...    ...    ..",
".......      ..     .......................     ...     ........",
"......      ...     .......................     ...      .......",
".....       ...     .......................     ...       ......",
"....       ...      .......................      ...       .....",
"...       ...       .......................       ...       ....",
"...      ...       .........................       ...       ...",
"..      ...       ...                     ...       ...      ...",
"..     ...       ...                       ...       ...     ...",
"...   ...       ...                         ...       ...   ....",
"........       ...                           ...       .........",
".......       ...                             ...       ........",
".......      ...      ...................      ...       .......",
"......      ...      .....................      ...       ......",
"......     ...      .....     ...      ....      ...       .....",
".......   ...      ....        ..        ...      ...       ....",
"............      ....         ..         ...      ...       ...",
"...........       ...          ..          ...      ...       ..",
"...........      ...           ..           ...      ...      ..",
"...........     ...       ............       ...      ...     ..",
"............  ....       ..............       ...      ...    ..",
"..................      ................      ....      ...  ...",
".................      ...    ...    ....     .....      ...   .",
"..................    ....    ...    .....    ......      .    .",
"...................  .....    ...    ......  ........    ..     ",
"..........................    ...    .................   ..    .",
"............................................................. ..",
"................................................................"
};
